<svg width="162" height="35" viewBox="0 0 162 35" fill="none" xmlns="http://www.w3.org/2000/svg">
<path d="M70.7977 7.1042H62.5782V11.6112H69.8504V15.7973H62.5782V20.6863H70.7977V25.0405H57.1392V2.75H70.7977V7.1042Z" fill="white"/>
<path d="M97.7326 2.75V25.0405H92.3089L83.2339 11.2904V25.0405H77.8102V2.75H83.2339L92.3089 16.5612V2.75H97.7326Z" fill="white"/>
<path d="M120.283 6.87504L110.688 20.5946H120.283V25.0405H104.531V20.9154L114.049 7.19587H104.531V2.75H120.283V6.87504Z" fill="white"/>
<path d="M127.158 2.75H132.581V25.0405H127.158V2.75Z" fill="white"/>
<path d="M150.304 25.2695C143.979 25.2695 138.845 20.5333 138.845 13.8416C138.845 7.14991 143.994 2.44434 150.304 2.44434C156.659 2.44434 161.701 7.14991 161.701 13.8416C161.701 20.5333 156.629 25.2695 150.304 25.2695ZM150.304 20.3194C153.863 20.3194 156.186 17.7528 156.186 13.8416C156.186 9.86937 153.863 7.36381 150.304 7.36381C146.683 7.36381 144.391 9.86937 144.391 13.8416C144.406 17.7375 146.683 20.3194 150.304 20.3194Z" fill="white"/>
<path d="M0 0.626399C5.66809 1.26807 11.1528 1.97082 16.6529 2.45972C19.8154 2.73472 23.0238 2.53612 26.2015 2.76529C30.7085 3.10141 34.8183 1.48195 39.0655 0.47361C40.7767 0.0611078 42.6711 0.427766 44.4892 0.366654C45.4975 0.336098 46.4906 0.152779 47.8503 0C47.9725 2.01668 48.1712 4.18616 48.1864 6.37089C48.1864 6.9209 47.7128 7.70007 47.2392 7.99035C45.5892 9.02924 43.8017 9.83895 42.1211 10.832C39.478 12.4056 36.8502 14.0251 34.2836 15.7209C29.9294 18.6085 25.5751 21.4807 20.5029 23.0696C17.3556 24.0627 14.3307 25.4835 11.1834 26.4918C9.44174 27.0571 7.56254 27.164 5.62225 27.1946C14.0098 19.9987 23.4057 14.5445 33.6572 10.5112C33.596 10.2973 33.5349 10.0834 33.4891 9.88479C32.771 9.85423 32.053 9.90005 31.3502 9.77783C27.3932 8.99866 23.4363 8.2042 19.4946 7.37919C16.7904 6.81391 14.0862 6.23338 11.3973 5.59171C9.39588 5.10282 7.33336 4.70557 5.46946 3.89584C3.60556 3.05556 1.94029 1.78752 0 0.626399Z" fill="white"/>
<path d="M63.6018 25.3306C62.9754 27.6834 62.731 29.7306 61.8754 31.4875C60.5004 34.3445 57.7045 34.6348 54.8781 34.6501C53.4267 34.6501 51.9601 34.8334 50.5392 34.6654C47.01 34.2529 43.4961 33.657 39.9669 33.1834C36.8044 32.7556 33.7488 33.3973 30.6321 33.8556C27.928 34.2529 25.2391 35.0626 22.2904 34.3293C18.0432 33.2751 13.6584 32.7862 9.28895 32.282C7.91394 32.114 6.44728 32.5723 5.05699 32.8473C3.31531 33.1987 3.25421 31.839 2.87227 30.8001C2.45976 29.6542 2.93337 29.1653 4.10977 28.9667C8.61674 28.2181 13.1084 27.3625 17.6154 26.6292C20.7321 26.125 23.864 25.5139 26.996 25.4223C32.5266 25.2695 38.0725 25.3764 43.6183 25.6056C48.11 25.7889 52.5864 26.4 57.0781 26.675C58.3156 26.7514 59.5837 26.3847 60.8212 26.1403C61.631 26.0181 62.3949 25.6972 63.6018 25.3306Z" fill="white"/>
</svg>
