<svg width="162" height="35" viewBox="0 0 162 35" fill="none" xmlns="http://www.w3.org/2000/svg">
<path d="M70.7977 7.1042H62.5782V11.6112H69.8504V15.7973H62.5782V20.6863H70.7977V25.0405H57.1392V2.75H70.7977V7.1042Z" fill="#15233F"/>
<path d="M97.7326 2.75V25.0405H92.3089L83.2339 11.2904V25.0405H77.8102V2.75H83.2339L92.3089 16.5612V2.75H97.7326Z" fill="#15233F"/>
<path d="M120.283 6.87504L110.688 20.5946H120.283V25.0405H104.531V20.9154L114.049 7.19587H104.531V2.75H120.283V6.87504Z" fill="#15233F"/>
<path d="M127.158 2.75H132.581V25.0405H127.158V2.75Z" fill="#15233F"/>
<path d="M150.304 25.2696C143.979 25.2696 138.845 20.5334 138.845 13.8417C138.845 7.15003 143.994 2.44446 150.304 2.44446C156.659 2.44446 161.701 7.15003 161.701 13.8417C161.701 20.5334 156.629 25.2696 150.304 25.2696ZM150.304 20.3195C153.863 20.3195 156.186 17.7529 156.186 13.8417C156.186 9.86949 153.863 7.36394 150.304 7.36394C146.683 7.36394 144.391 9.86949 144.391 13.8417C144.406 17.7376 146.683 20.3195 150.304 20.3195Z" fill="#15233F"/>
<path d="M0 0.626399C5.66809 1.26807 11.1528 1.97082 16.6529 2.45972C19.8154 2.73472 23.0238 2.53612 26.2015 2.76529C30.7085 3.10141 34.8183 1.48195 39.0655 0.47361C40.7767 0.0611078 42.6711 0.427766 44.4892 0.366654C45.4975 0.336098 46.4906 0.152779 47.8503 0C47.9725 2.01668 48.1712 4.18616 48.1864 6.37089C48.1864 6.9209 47.7128 7.70007 47.2392 7.99035C45.5892 9.02924 43.8017 9.83895 42.1211 10.832C39.478 12.4056 36.8502 14.0251 34.2836 15.7209C29.9294 18.6085 25.5751 21.4807 20.5029 23.0696C17.3556 24.0627 14.3307 25.4835 11.1834 26.4918C9.44174 27.0571 7.56254 27.164 5.62225 27.1946C14.0098 19.9987 23.4057 14.5445 33.6572 10.5112C33.596 10.2973 33.5349 10.0834 33.4891 9.88479C32.771 9.85423 32.053 9.90005 31.3502 9.77783C27.3932 8.99866 23.4363 8.2042 19.4946 7.37919C16.7904 6.81391 14.0862 6.23338 11.3973 5.59171C9.39588 5.10282 7.33336 4.70557 5.46946 3.89584C3.60556 3.05556 1.94029 1.78752 0 0.626399Z" fill="#15233F"/>
<path d="M63.6018 25.3307C62.9754 27.6835 62.731 29.7307 61.8754 31.4877C60.5004 34.3446 57.7045 34.6349 54.8781 34.6502C53.4267 34.6502 51.9601 34.8336 50.5392 34.6655C47.01 34.253 43.4961 33.6572 39.9669 33.1835C36.8044 32.7558 33.7488 33.3974 30.6321 33.8558C27.928 34.253 25.2391 35.0627 22.2904 34.3294C18.0432 33.2752 13.6584 32.7863 9.28895 32.2821C7.91394 32.1141 6.44728 32.5724 5.05699 32.8474C3.31531 33.1988 3.25421 31.8391 2.87227 30.8002C2.45976 29.6544 2.93337 29.1654 4.10977 28.9668C8.61674 28.2182 13.1084 27.3627 17.6154 26.6293C20.7321 26.1251 23.864 25.5141 26.996 25.4224C32.5266 25.2696 38.0725 25.3766 43.6183 25.6057C48.11 25.7891 52.5864 26.4001 57.0781 26.6751C58.3156 26.7515 59.5837 26.3849 60.8212 26.1404C61.631 26.0182 62.3949 25.6974 63.6018 25.3307Z" fill="#15233F"/>
</svg>
